<?xml version="1.0" encoding="UTF-8" standalone="no"?>
<!DOCTYPE svg PUBLIC "-//W3C//DTD SVG 1.1//EN"
 "http://www.w3.org/Graphics/SVG/1.1/DTD/svg11.dtd">
<!-- Generated by graphviz version 9.0.0 (20230911.1827)
 -->
<!-- Title: semnet Pages: 1 -->
<svg width="1470pt" height="1106pt"
 viewBox="0.00 0.00 1470.00 1106.00" xmlns="http://www.w3.org/2000/svg" xmlns:xlink="http://www.w3.org/1999/xlink">
<g id="graph0" class="graph" transform="scale(1 1) rotate(0) translate(4 1102)">
<title>semnet</title>
<polygon fill="white" stroke="none" points="-4,4 -4,-1102 1466,-1102 1466,4 -4,4"/>
<!-- human -->
<g id="node1" class="node">
<title>human</title>
<ellipse fill="none" stroke="black" cx="1279" cy="-1080" rx="36.51" ry="18"/>
<text text-anchor="middle" x="1279" y="-1074.95" font-family="Times,serif" font-size="14.00">human</text>
</g>
<!-- resource -->
<g id="node2" class="node">
<title>resource</title>
<ellipse fill="none" stroke="black" cx="644" cy="-991.5" rx="42.14" ry="18"/>
<text text-anchor="middle" x="644" y="-986.45" font-family="Times,serif" font-size="14.00">resource</text>
</g>
<!-- human&#45;&#45;resource -->
<g id="edge1" class="edge">
<title>human&#45;&#45;resource</title>
<path fill="none" stroke="black" stroke-width="2" d="M1243.96,-1074.23C1134.49,-1059.32 799.4,-1013.67 683.75,-997.91"/>
<text text-anchor="middle" x="1030" y="-1030.7" font-family="Times,serif" font-size="14.00">0.23</text>
</g>
<!-- material -->
<g id="node3" class="node">
<title>material</title>
<ellipse fill="none" stroke="black" cx="711" cy="-726" rx="41.63" ry="18"/>
<text text-anchor="middle" x="711" y="-720.95" font-family="Times,serif" font-size="14.00">material</text>
</g>
<!-- human&#45;&#45;material -->
<g id="edge2" class="edge">
<title>human&#45;&#45;material</title>
<path fill="none" stroke="black" stroke-width="2" d="M1287.65,-1062.25C1304.07,-1028.15 1336.3,-948.49 1315,-885 1293.2,-820.03 1282.28,-794.61 1222,-762 1181.18,-739.92 867.16,-730.58 752.63,-727.88"/>
<text text-anchor="middle" x="1333" y="-897.95" font-family="Times,serif" font-size="14.00">0.23</text>
</g>
<!-- building -->
<g id="node4" class="node">
<title>building</title>
<ellipse fill="none" stroke="black" cx="1165" cy="-283.5" rx="41.63" ry="18"/>
<text text-anchor="middle" x="1165" y="-278.45" font-family="Times,serif" font-size="14.00">building</text>
</g>
<!-- human&#45;&#45;building -->
<g id="edge3" class="edge">
<title>human&#45;&#45;building</title>
<path fill="none" stroke="black" stroke-width="2" d="M1296.33,-1063.75C1302.17,-1057.99 1308.37,-1051.09 1313,-1044 1322.04,-1030.14 1321.88,-1025.24 1327,-1009.5 1378.75,-850.46 1390,-805.75 1390,-638.5 1390,-638.5 1390,-638.5 1390,-415.25 1390,-330.54 1269.3,-299.78 1204.71,-289.38"/>
<text text-anchor="middle" x="1401" y="-676.7" font-family="Times,serif" font-size="14.00">0.15</text>
</g>
<!-- resource&#45;&#45;human -->
<g id="edge7" class="edge">
<title>resource&#45;&#45;human</title>
<path fill="none" stroke="black" stroke-width="2" d="M679.26,-1001.8C724.66,-1013.44 806.16,-1033.13 877,-1044 1010.82,-1064.52 1171.68,-1074.01 1242.5,-1077.42"/>
<text text-anchor="middle" x="889" y="-1030.7" font-family="Times,serif" font-size="14.00">0.23</text>
</g>
<!-- resource&#45;&#45;material -->
<g id="edge8" class="edge">
<title>resource&#45;&#45;material</title>
<path fill="none" stroke="black" stroke-width="2" d="M647.66,-973.19C653.32,-946.68 664.75,-894.46 676,-850.5 685.78,-812.29 698.76,-767.88 705.85,-744.11"/>
<text text-anchor="middle" x="688" y="-853.7" font-family="Times,serif" font-size="14.00">0.23</text>
</g>
<!-- resource&#45;&#45;building -->
<g id="edge9" class="edge">
<title>resource&#45;&#45;building</title>
<path fill="none" stroke="black" stroke-width="2" d="M678.35,-980.75C803.54,-942.89 1228,-793.33 1228,-505.75 1228,-505.75 1228,-505.75 1228,-371 1228,-341.46 1203.7,-315.25 1185.28,-299.62"/>
<text text-anchor="middle" x="1216" y="-632.45" font-family="Times,serif" font-size="14.00">0.15</text>
</g>
<!-- location -->
<g id="node7" class="node">
<title>location</title>
<ellipse fill="none" stroke="black" cx="1220" cy="-195" rx="40.6" ry="18"/>
<text text-anchor="middle" x="1220" y="-189.95" font-family="Times,serif" font-size="14.00">location</text>
</g>
<!-- resource&#45;&#45;location -->
<g id="edge14" class="edge">
<title>resource&#45;&#45;location</title>
<path fill="none" stroke="black" stroke-width="2" d="M685.77,-988.47C814.47,-981.83 1198.78,-958.98 1239,-921 1299.85,-863.53 1304,-633.7 1304,-550 1304,-550 1304,-550 1304,-282.5 1304,-248.8 1270.78,-223.27 1246.12,-208.97"/>
<text text-anchor="middle" x="1315" y="-588.2" font-family="Times,serif" font-size="14.00">0.20</text>
</g>
<!-- provides -->
<g id="node8" class="node">
<title>provides</title>
<ellipse fill="none" stroke="black" cx="374" cy="-106.5" rx="42.65" ry="18"/>
<text text-anchor="middle" x="374" y="-101.45" font-family="Times,serif" font-size="14.00">provides</text>
</g>
<!-- resource&#45;&#45;provides -->
<g id="edge10" class="edge">
<title>resource&#45;&#45;provides</title>
<path fill="none" stroke="black" stroke-width="3" d="M602.13,-988.34C473.55,-981.14 93,-955.5 93,-904 93,-904 93,-904 93,-459.5 93,-372.32 76.19,-339.67 122,-265.5 172.74,-183.34 283.82,-136.91 340.01,-117.84"/>
<text text-anchor="middle" x="105" y="-543.95" font-family="Times,serif" font-size="14.00">0.28</text>
</g>
<!-- consumes -->
<g id="node9" class="node">
<title>consumes</title>
<ellipse fill="none" stroke="black" cx="225" cy="-18" rx="47.77" ry="18"/>
<text text-anchor="middle" x="225" y="-12.95" font-family="Times,serif" font-size="14.00">consumes</text>
</g>
<!-- resource&#45;&#45;consumes -->
<g id="edge11" class="edge">
<title>resource&#45;&#45;consumes</title>
<path fill="none" stroke="black" stroke-width="2" d="M601.75,-990.28C471.47,-989.31 81.79,-984.02 33,-955.5 9.53,-941.78 0,-931.18 0,-904 0,-904 0,-904 0,-105.5 0,-78.32 10.42,-69.14 33,-54 56.29,-38.39 129.71,-28.33 178.71,-23.18"/>
<text text-anchor="middle" x="12" y="-499.7" font-family="Times,serif" font-size="14.00">0.15</text>
</g>
<!-- contains -->
<g id="node10" class="node">
<title>contains</title>
<ellipse fill="none" stroke="black" cx="316" cy="-814.5" rx="41.63" ry="18"/>
<text text-anchor="middle" x="316" y="-809.45" font-family="Times,serif" font-size="14.00">contains</text>
</g>
<!-- resource&#45;&#45;contains -->
<g id="edge12" class="edge">
<title>resource&#45;&#45;contains</title>
<path fill="none" stroke="black" stroke-width="2" d="M601.73,-991.08C556.25,-990.06 482.92,-983.6 427,-955.5 376.59,-930.17 367.15,-914.04 336,-867 329.01,-856.44 323.91,-843.08 320.61,-832.61"/>
<text text-anchor="middle" x="388" y="-897.95" font-family="Times,serif" font-size="14.00">0.20</text>
</g>
<!-- searchable -->
<g id="node11" class="node">
<title>searchable</title>
<ellipse fill="none" stroke="black" cx="541" cy="-903" rx="49.82" ry="18"/>
<text text-anchor="middle" x="541" y="-897.95" font-family="Times,serif" font-size="14.00">searchable</text>
</g>
<!-- resource&#45;&#45;searchable -->
<g id="edge13" class="edge">
<title>resource&#45;&#45;searchable</title>
<path fill="none" stroke="black" stroke-width="2" d="M614.24,-978.33C602.2,-972.52 588.65,-964.8 578,-955.5 566.72,-945.65 556.98,-931.73 550.33,-920.85"/>
<text text-anchor="middle" x="590" y="-942.2" font-family="Times,serif" font-size="14.00">0.22</text>
</g>
<!-- material&#45;&#45;human -->
<g id="edge15" class="edge">
<title>material&#45;&#45;human</title>
<path fill="none" stroke="black" stroke-width="2" d="M751.92,-729.77C871.33,-738.4 1211,-767.03 1211,-813.5 1211,-992.5 1211,-992.5 1211,-992.5 1211,-1023.45 1238.23,-1049.86 1258.23,-1065.09"/>
<text text-anchor="middle" x="1223" y="-897.95" font-family="Times,serif" font-size="14.00">0.23</text>
</g>
<!-- material&#45;&#45;resource -->
<g id="edge16" class="edge">
<title>material&#45;&#45;resource</title>
<path fill="none" stroke="black" stroke-width="2" d="M710.14,-744.18C709.6,-754.19 708.85,-767.07 708,-778.5 702.02,-858.93 704.81,-883.74 668,-955.5 664.77,-961.79 660.59,-968.29 656.62,-973.95"/>
<text text-anchor="middle" x="715" y="-853.7" font-family="Times,serif" font-size="14.00">0.23</text>
</g>
<!-- material&#45;&#45;building -->
<g id="edge17" class="edge">
<title>material&#45;&#45;building</title>
<path fill="none" stroke="black" stroke-width="2" d="M752.87,-724.33C853.61,-722.31 1103.21,-714.84 1131,-690 1189.34,-637.86 1172.18,-372.38 1166.49,-301.77"/>
<text text-anchor="middle" x="1184" y="-499.7" font-family="Times,serif" font-size="14.00">0.18</text>
</g>
<!-- material&#45;&#45;contains -->
<g id="edge19" class="edge">
<title>material&#45;&#45;contains</title>
<path fill="none" stroke="black" stroke-width="2" d="M672.76,-733.55C635.07,-740.17 575.89,-750.95 525,-762 463.47,-775.36 392.39,-793.44 350.99,-804.25"/>
<text text-anchor="middle" x="537" y="-765.2" font-family="Times,serif" font-size="14.00">0.21</text>
</g>
<!-- material&#45;&#45;searchable -->
<g id="edge20" class="edge">
<title>material&#45;&#45;searchable</title>
<path fill="none" stroke="black" stroke-width="2" d="M674.58,-734.83C654.19,-740.32 628.93,-749.03 609,-762 565.74,-790.14 549.18,-854.22 543.56,-884.95"/>
<text text-anchor="middle" x="588" y="-809.45" font-family="Times,serif" font-size="14.00">0.18</text>
</g>
<!-- wood -->
<g id="node12" class="node">
<title>wood</title>
<ellipse fill="none" stroke="black" cx="723" cy="-637.5" rx="31.39" ry="18"/>
<text text-anchor="middle" x="723" y="-632.45" font-family="Times,serif" font-size="14.00">wood</text>
</g>
<!-- material&#45;&#45;wood -->
<g id="edge18" class="edge">
<title>material&#45;&#45;wood</title>
<path fill="none" stroke="black" stroke-width="2" d="M703.15,-708.13C699.48,-697.99 696.59,-684.89 700,-673.5 702.04,-666.67 705.89,-659.94 709.86,-654.24"/>
<text text-anchor="middle" x="712" y="-676.7" font-family="Times,serif" font-size="14.00">0.24</text>
</g>
<!-- building&#45;&#45;human -->
<g id="edge21" class="edge">
<title>building&#45;&#45;human</title>
<path fill="none" stroke="black" stroke-width="2" d="M1205.68,-287.82C1242.08,-291.9 1296.3,-300.74 1340,-319.5 1364.48,-330 1373.65,-332.23 1389,-354 1484.81,-489.88 1437,-558.74 1437,-725 1437,-992.5 1437,-992.5 1437,-992.5 1437,-1048.01 1361.04,-1068.13 1314.46,-1075.25"/>
<text text-anchor="middle" x="1450" y="-676.7" font-family="Times,serif" font-size="14.00">0.15</text>
</g>
<!-- building&#45;&#45;resource -->
<g id="edge23" class="edge">
<title>building&#45;&#45;resource</title>
<path fill="none" stroke="black" stroke-width="2" d="M1196.13,-295.92C1225.8,-309.05 1266,-333.72 1266,-371 1266,-505.75 1266,-505.75 1266,-505.75 1266,-754.13 1118.25,-818.53 892,-921 821.13,-953.1 732.03,-973.67 682.22,-983.56"/>
<text text-anchor="middle" x="1264" y="-632.45" font-family="Times,serif" font-size="14.00">0.15</text>
</g>
<!-- building&#45;&#45;material -->
<g id="edge24" class="edge">
<title>building&#45;&#45;material</title>
<path fill="none" stroke="black" stroke-width="2" d="M1164.86,-301.7C1163.84,-347.31 1156.88,-474.24 1112,-567 1103.15,-585.29 1098.9,-590.23 1082,-601.5 974.13,-673.44 820.7,-706.78 749.75,-719.07"/>
<text text-anchor="middle" x="1149" y="-499.7" font-family="Times,serif" font-size="14.00">0.18</text>
</g>
<!-- thing -->
<g id="node5" class="node">
<title>thing</title>
<ellipse fill="none" stroke="black" cx="1263" cy="-18" rx="29.86" ry="18"/>
<text text-anchor="middle" x="1263" y="-12.95" font-family="Times,serif" font-size="14.00">thing</text>
</g>
<!-- building&#45;&#45;thing -->
<g id="edge22" class="edge">
<title>building&#45;&#45;thing</title>
<path fill="none" stroke="black" stroke-width="2" d="M1193.95,-270.16C1206.72,-264.13 1221.62,-256.28 1234,-247.5 1269.23,-222.52 1348.13,-126.78 1349,-124.5 1361.2,-92.52 1344.12,-76.12 1318,-54 1307.72,-45.3 1295.12,-37.12 1284.57,-30.86"/>
<text text-anchor="middle" x="1346" y="-145.7" font-family="Times,serif" font-size="14.00">0.15</text>
</g>
<!-- building&#45;&#45;location -->
<g id="edge28" class="edge">
<title>building&#45;&#45;location</title>
<path fill="none" stroke="black" stroke-width="3" d="M1181.47,-266.67C1186.85,-260.96 1192.58,-254.25 1197,-247.5 1204.09,-236.69 1209.98,-223.34 1214.03,-212.94"/>
<text text-anchor="middle" x="1218" y="-234.2" font-family="Times,serif" font-size="14.00">0.29</text>
</g>
<!-- building&#45;&#45;wood -->
<g id="edge27" class="edge">
<title>building&#45;&#45;wood</title>
<path fill="none" stroke="black" stroke-width="3" d="M1144.08,-299.48C1125.07,-315 1100,-341.13 1100,-371 1100,-550 1100,-550 1100,-550 1100,-580.69 1081.31,-587.5 1054,-601.5 1002.19,-628.05 826.87,-634.49 754.57,-636.03"/>
<text text-anchor="middle" x="1112" y="-455.45" font-family="Times,serif" font-size="14.00">0.26</text>
</g>
<!-- fire -->
<g id="node13" class="node">
<title>fire</title>
<ellipse fill="none" stroke="black" cx="892" cy="-372" rx="27" ry="18"/>
<text text-anchor="middle" x="892" y="-366.95" font-family="Times,serif" font-size="14.00">fire</text>
</g>
<!-- building&#45;&#45;fire -->
<g id="edge25" class="edge">
<title>building&#45;&#45;fire</title>
<path fill="none" stroke="black" stroke-width="3" d="M1122.95,-284.51C1078.05,-286.04 1005.84,-292.95 950,-319.5 932,-328.06 915.43,-343.93 904.65,-355.8"/>
<text text-anchor="middle" x="962" y="-322.7" font-family="Times,serif" font-size="14.00">0.29</text>
</g>
<!-- tree -->
<g id="node14" class="node">
<title>tree</title>
<ellipse fill="none" stroke="black" cx="808" cy="-195" rx="27" ry="18"/>
<text text-anchor="middle" x="808" y="-189.95" font-family="Times,serif" font-size="14.00">tree</text>
</g>
<!-- building&#45;&#45;tree -->
<g id="edge26" class="edge">
<title>building&#45;&#45;tree</title>
<path fill="none" stroke="black" stroke-width="2" d="M1123.19,-283.31C1068.75,-283 971.51,-277.67 895,-247.5 883.3,-242.88 882.65,-237.7 872,-231 858.06,-222.24 841.78,-213.35 829.12,-206.72"/>
<text text-anchor="middle" x="907" y="-234.2" font-family="Times,serif" font-size="14.00">0.18</text>
</g>
<!-- thing&#45;&#45;building -->
<g id="edge4" class="edge">
<title>thing&#45;&#45;building</title>
<path fill="none" stroke="black" stroke-width="2" d="M1238.03,-28.3C1225.29,-34.08 1210.34,-42.6 1200,-54 1188.76,-66.38 1191.11,-72.94 1185,-88.5 1175.7,-112.18 1171.27,-117.61 1166,-142.5 1157.83,-181.1 1160.56,-191.57 1159,-231 1158.71,-238.33 1158.38,-240.19 1159,-247.5 1159.49,-253.27 1160.43,-259.53 1161.42,-265.13"/>
<text text-anchor="middle" x="1178" y="-145.7" font-family="Times,serif" font-size="14.00">0.15</text>
</g>
<!-- instance -->
<g id="node6" class="node">
<title>instance</title>
<ellipse fill="none" stroke="black" cx="1268" cy="-106.5" rx="41.12" ry="18"/>
<text text-anchor="middle" x="1268" y="-101.45" font-family="Times,serif" font-size="14.00">instance</text>
</g>
<!-- thing&#45;&#45;instance -->
<g id="edge5" class="edge">
<title>thing&#45;&#45;instance</title>
<path fill="none" stroke="black" stroke-width="3" d="M1249.91,-34.54C1243.02,-44.64 1236.8,-58.17 1241,-70.5 1243.38,-77.47 1247.77,-84.14 1252.33,-89.75"/>
<text text-anchor="middle" x="1253" y="-57.2" font-family="Times,serif" font-size="14.00">0.29</text>
</g>
<!-- thing&#45;&#45;location -->
<g id="edge6" class="edge">
<title>thing&#45;&#45;location</title>
<path fill="none" stroke="black" stroke-width="2" d="M1243.29,-32.02C1226.62,-44.32 1203.91,-64.45 1194,-88.5 1181.57,-118.67 1197.81,-156.25 1209.65,-177.44"/>
<text text-anchor="middle" x="1206" y="-101.45" font-family="Times,serif" font-size="14.00">0.19</text>
</g>
<!-- instance&#45;&#45;thing -->
<g id="edge48" class="edge">
<title>instance&#45;&#45;thing</title>
<path fill="none" stroke="black" stroke-width="3" d="M1267.01,-88.41C1266.14,-73.34 1264.88,-51.49 1264,-36.35"/>
<text text-anchor="middle" x="1277" y="-57.2" font-family="Times,serif" font-size="14.00">0.29</text>
</g>
<!-- instance&#45;&#45;location -->
<g id="edge49" class="edge">
<title>instance&#45;&#45;location</title>
<path fill="none" stroke="black" stroke-width="2" d="M1261.83,-124.68C1257.87,-134.93 1252.29,-148.04 1246,-159 1242.31,-165.43 1237.63,-172.07 1233.26,-177.81"/>
<text text-anchor="middle" x="1266" y="-145.7" font-family="Times,serif" font-size="14.00">0.17</text>
</g>
<!-- location&#45;&#45;resource -->
<g id="edge70" class="edge">
<title>location&#45;&#45;resource</title>
<path fill="none" stroke="black" stroke-width="2" d="M1252.85,-205.96C1267.54,-211.6 1284.36,-219.8 1297,-231 1310.43,-242.91 1311.98,-248.59 1318,-265.5 1353.87,-366.2 1351,-396.85 1351,-503.75 1351,-638.5 1351,-638.5 1351,-638.5 1351,-826.17 1310.16,-878.18 1264,-921 1227.37,-954.98 1206.07,-946.06 1157,-955.5 984.74,-988.63 774.68,-991.52 686.34,-991.08"/>
<text text-anchor="middle" x="1363" y="-588.2" font-family="Times,serif" font-size="14.00">0.20</text>
</g>
<!-- location&#45;&#45;building -->
<g id="edge71" class="edge">
<title>location&#45;&#45;building</title>
<path fill="none" stroke="black" stroke-width="3" d="M1192.51,-208.62C1183.5,-214.18 1174.42,-221.61 1169,-231 1163.08,-241.25 1162.2,-254.62 1162.74,-265.17"/>
<text text-anchor="middle" x="1181" y="-234.2" font-family="Times,serif" font-size="14.00">0.29</text>
</g>
<!-- location&#45;&#45;thing -->
<g id="edge69" class="edge">
<title>location&#45;&#45;thing</title>
<path fill="none" stroke="black" stroke-width="2" d="M1250.66,-182.71C1274.6,-171.94 1305.8,-153.08 1318,-124.5 1332.35,-90.87 1300.56,-53.31 1279.58,-33.33"/>
<text text-anchor="middle" x="1333" y="-101.45" font-family="Times,serif" font-size="14.00">0.19</text>
</g>
<!-- location&#45;&#45;instance -->
<g id="edge72" class="edge">
<title>location&#45;&#45;instance</title>
<path fill="none" stroke="black" stroke-width="2" d="M1215.21,-176.83C1213.25,-166.34 1212.55,-152.98 1218,-142.5 1222.89,-133.1 1231.59,-125.71 1240.38,-120.18"/>
<text text-anchor="middle" x="1230" y="-145.7" font-family="Times,serif" font-size="14.00">0.17</text>
</g>
<!-- location&#45;&#45;provides -->
<g id="edge73" class="edge">
<title>location&#45;&#45;provides</title>
<path fill="none" stroke="black" stroke-width="2" d="M1183.31,-186.93C1124.14,-175.78 1003.84,-154.19 901,-142.5 721.52,-122.1 506.19,-112.37 416.47,-108.97"/>
<text text-anchor="middle" x="1027" y="-145.7" font-family="Times,serif" font-size="14.00">0.16</text>
</g>
<!-- provides&#45;&#45;resource -->
<g id="edge50" class="edge">
<title>provides&#45;&#45;resource</title>
<path fill="none" stroke="black" stroke-width="3" d="M382.37,-124.61C389.97,-141.74 400,-169.07 400,-194 400,-417.25 400,-417.25 400,-417.25 400,-473.96 446.75,-876.58 482,-921 512.24,-959.12 567.41,-976.7 604.88,-984.55"/>
<text text-anchor="middle" x="426" y="-543.95" font-family="Times,serif" font-size="14.00">0.28</text>
</g>
<!-- provides&#45;&#45;location -->
<g id="edge54" class="edge">
<title>provides&#45;&#45;location</title>
<path fill="none" stroke="black" stroke-width="2" d="M415.11,-111.7C559.07,-126.42 1039.37,-175.53 1180.61,-189.97"/>
<text text-anchor="middle" x="885" y="-145.7" font-family="Times,serif" font-size="14.00">0.16</text>
</g>
<!-- provides&#45;&#45;consumes -->
<g id="edge51" class="edge">
<title>provides&#45;&#45;consumes</title>
<path fill="none" stroke="black" stroke-width="3" d="M344.56,-93.17C330.49,-86.92 313.57,-78.89 299,-70.5 280.14,-59.65 259.95,-45.4 245.43,-34.64"/>
<text text-anchor="middle" x="311" y="-57.2" font-family="Times,serif" font-size="14.00">0.34</text>
</g>
<!-- provides&#45;&#45;contains -->
<g id="edge52" class="edge">
<title>provides&#45;&#45;contains</title>
<path fill="none" stroke="black" stroke-width="6" d="M346.79,-120.58C321.59,-134.8 288,-160.12 288,-194 288,-417.25 288,-417.25 288,-417.25 288,-564.15 307.38,-740.91 313.9,-796.15"/>
<text text-anchor="middle" x="301" y="-455.45" font-family="Times,serif" font-size="14.00">0.57</text>
</g>
<!-- provides&#45;&#45;searchable -->
<g id="edge53" class="edge">
<title>provides&#45;&#45;searchable</title>
<path fill="none" stroke="black" stroke-width="3" d="M395.25,-122.41C414.54,-137.87 440,-163.97 440,-194 440,-461.5 440,-461.5 440,-461.5 440,-484.39 438.8,-490.21 441,-513 448.69,-592.49 464.72,-796.91 503,-867 507.04,-874.4 513.24,-881.08 519.46,-886.58"/>
<text text-anchor="middle" x="453" y="-499.7" font-family="Times,serif" font-size="14.00">0.26</text>
</g>
<!-- consumes&#45;&#45;resource -->
<g id="edge55" class="edge">
<title>consumes&#45;&#45;resource</title>
<path fill="none" stroke="black" stroke-width="2" d="M178.23,-21.95C125.49,-28.11 47,-47.09 47,-105.5 47,-904 47,-904 47,-904 47,-958.38 105.35,-941.88 158,-955.5 241.43,-977.08 499.92,-986.48 601.95,-989.42"/>
<text text-anchor="middle" x="59" y="-499.7" font-family="Times,serif" font-size="14.00">0.15</text>
</g>
<!-- consumes&#45;&#45;provides -->
<g id="edge57" class="edge">
<title>consumes&#45;&#45;provides</title>
<path fill="none" stroke="black" stroke-width="3" d="M264.05,-28.57C282.79,-34.23 305.01,-42.56 323,-54 337.86,-63.46 351.72,-77.97 361.23,-89.19"/>
<text text-anchor="middle" x="356" y="-57.2" font-family="Times,serif" font-size="14.00">0.34</text>
</g>
<!-- consumes&#45;&#45;contains -->
<g id="edge58" class="edge">
<title>consumes&#45;&#45;contains</title>
<path fill="none" stroke="black" stroke-width="4" d="M195.86,-32.36C169.9,-46.49 136,-71.46 136,-105.5 136,-373 136,-373 136,-373 136,-463.22 97.57,-709.76 156,-778.5 171.15,-796.32 232.89,-805.69 275.1,-810.11"/>
<text text-anchor="middle" x="147" y="-411.2" font-family="Times,serif" font-size="14.00">0.39</text>
</g>
<!-- consumes&#45;&#45;wood -->
<g id="edge56" class="edge">
<title>consumes&#45;&#45;wood</title>
<path fill="none" stroke="black" stroke-width="2" d="M271.65,-22.24C325.18,-26.61 415.32,-36.04 491,-54 751.52,-115.84 932.36,-179.32 966,-231 987.24,-263.63 941.95,-274.4 914,-301.5 889.04,-325.7 881.48,-330.35 856,-354 854.69,-355.21 763.98,-441.01 763,-442.5 726.76,-497.4 727.24,-519.36 723,-585 722.26,-596.42 722.26,-609.3 722.45,-619.32"/>
<text text-anchor="middle" x="907" y="-322.7" font-family="Times,serif" font-size="14.00">0.15</text>
</g>
<!-- contains&#45;&#45;resource -->
<g id="edge59" class="edge">
<title>contains&#45;&#45;resource</title>
<path fill="none" stroke="black" stroke-width="2" d="M311.74,-832.88C307.3,-855.29 303.22,-894.51 321,-921 352.04,-967.26 521.94,-983.33 602.1,-988.39"/>
<text text-anchor="middle" x="333" y="-897.95" font-family="Times,serif" font-size="14.00">0.20</text>
</g>
<!-- contains&#45;&#45;material -->
<g id="edge60" class="edge">
<title>contains&#45;&#45;material</title>
<path fill="none" stroke="black" stroke-width="2" d="M340.51,-799.55C362.65,-787.6 396.5,-770.96 428,-762 511.57,-738.24 613.56,-730.61 669.44,-728.16"/>
<text text-anchor="middle" x="440" y="-765.2" font-family="Times,serif" font-size="14.00">0.21</text>
</g>
<!-- contains&#45;&#45;provides -->
<g id="edge61" class="edge">
<title>contains&#45;&#45;provides</title>
<path fill="none" stroke="black" stroke-width="6" d="M322.94,-796.48C332.35,-771.84 348,-724.58 348,-682.75 348,-682.75 348,-682.75 348,-194 348,-169.07 358.03,-141.74 365.63,-124.61"/>
<text text-anchor="middle" x="360" y="-455.45" font-family="Times,serif" font-size="14.00">0.57</text>
</g>
<!-- contains&#45;&#45;consumes -->
<g id="edge62" class="edge">
<title>contains&#45;&#45;consumes</title>
<path fill="none" stroke="black" stroke-width="4" d="M278.6,-806.02C246.94,-797.34 204.34,-779.4 189,-744 146.89,-646.81 183,-611.67 183,-505.75 183,-505.75 183,-505.75 183,-105.5 183,-79.12 199,-52.36 211.25,-35.73"/>
<text text-anchor="middle" x="195" y="-411.2" font-family="Times,serif" font-size="14.00">0.39</text>
</g>
<!-- contains&#45;&#45;searchable -->
<g id="edge63" class="edge">
<title>contains&#45;&#45;searchable</title>
<path fill="none" stroke="black" stroke-width="2" d="M324.87,-832.55C331.78,-844.11 342.48,-858.73 356,-867 396.86,-891.98 451.54,-899.83 490.84,-901.98"/>
<text text-anchor="middle" x="368" y="-853.7" font-family="Times,serif" font-size="14.00">0.24</text>
</g>
<!-- carrying -->
<g id="node17" class="node">
<title>carrying</title>
<ellipse fill="none" stroke="black" cx="240" cy="-726" rx="41.63" ry="18"/>
<text text-anchor="middle" x="240" y="-720.95" font-family="Times,serif" font-size="14.00">carrying</text>
</g>
<!-- contains&#45;&#45;carrying -->
<g id="edge64" class="edge">
<title>contains&#45;&#45;carrying</title>
<path fill="none" stroke="black" stroke-width="2" d="M294.58,-798.81C286.95,-793 278.62,-785.94 272,-778.5 262.62,-767.96 254.29,-754.35 248.49,-743.76"/>
<text text-anchor="middle" x="284" y="-765.2" font-family="Times,serif" font-size="14.00">0.18</text>
</g>
<!-- searchable&#45;&#45;resource -->
<g id="edge65" class="edge">
<title>searchable&#45;&#45;resource</title>
<path fill="none" stroke="black" stroke-width="2" d="M570.36,-918.01C580.89,-923.75 592.51,-930.94 602,-939 613.96,-949.15 625.07,-963.05 632.85,-973.85"/>
<text text-anchor="middle" x="630" y="-942.2" font-family="Times,serif" font-size="14.00">0.22</text>
</g>
<!-- searchable&#45;&#45;material -->
<g id="edge66" class="edge">
<title>searchable&#45;&#45;material</title>
<path fill="none" stroke="black" stroke-width="2" d="M555.34,-885.46C567.51,-871.39 585.44,-850.65 601,-832.5 627.78,-801.26 630.57,-789.69 661,-762 669.23,-754.51 679.12,-747.28 687.92,-741.35"/>
<text text-anchor="middle" x="642" y="-809.45" font-family="Times,serif" font-size="14.00">0.18</text>
</g>
<!-- searchable&#45;&#45;provides -->
<g id="edge67" class="edge">
<title>searchable&#45;&#45;provides</title>
<path fill="none" stroke="black" stroke-width="3" d="M537.9,-884.63C528.33,-830.11 499.2,-657.4 488,-513 486.23,-490.18 487,-484.39 487,-461.5 487,-461.5 487,-461.5 487,-194 487,-153.85 441.47,-129.82 408.21,-117.62"/>
<text text-anchor="middle" x="500" y="-499.7" font-family="Times,serif" font-size="14.00">0.26</text>
</g>
<!-- searchable&#45;&#45;contains -->
<g id="edge68" class="edge">
<title>searchable&#45;&#45;contains</title>
<path fill="none" stroke="black" stroke-width="2" d="M505.66,-890.15C486.44,-883.58 462.32,-875.11 441,-867 407.77,-854.35 370.09,-838.64 344.87,-827.91"/>
<text text-anchor="middle" x="453" y="-853.7" font-family="Times,serif" font-size="14.00">0.24</text>
</g>
<!-- wood&#45;&#45;material -->
<g id="edge38" class="edge">
<title>wood&#45;&#45;material</title>
<path fill="none" stroke="black" stroke-width="2" d="M725.02,-655.8C725.77,-665.86 726.02,-678.73 724,-690 722.92,-696 720.88,-702.31 718.73,-707.9"/>
<text text-anchor="middle" x="738" y="-676.7" font-family="Times,serif" font-size="14.00">0.24</text>
</g>
<!-- wood&#45;&#45;building -->
<g id="edge39" class="edge">
<title>wood&#45;&#45;building</title>
<path fill="none" stroke="black" stroke-width="3" d="M754.26,-634.63C834.24,-629.01 1040,-608.83 1040,-550 1040,-550 1040,-550 1040,-371 1040,-327.32 1092.24,-303.97 1129.18,-292.91"/>
<text text-anchor="middle" x="1052" y="-455.45" font-family="Times,serif" font-size="14.00">0.26</text>
</g>
<!-- wood&#45;&#45;consumes -->
<g id="edge43" class="edge">
<title>wood&#45;&#45;consumes</title>
<path fill="none" stroke="black" stroke-width="2" d="M691.35,-636.4C635.66,-634.38 526,-621.34 526,-550 526,-550 526,-550 526,-415.25 526,-357.14 525,-342.61 525,-284.5 525,-284.5 525,-284.5 525,-105.5 525,-53.4 355.81,-30.77 271.55,-22.73"/>
<text text-anchor="middle" x="538" y="-322.7" font-family="Times,serif" font-size="14.00">0.15</text>
</g>
<!-- wood&#45;&#45;fire -->
<g id="edge40" class="edge">
<title>wood&#45;&#45;fire</title>
<path fill="none" stroke="black" stroke-width="2" d="M724.59,-619.31C727.65,-592.07 735.9,-537.82 756,-496.5 781.67,-443.73 840.7,-403.02 871.87,-384.29"/>
<text text-anchor="middle" x="768" y="-499.7" font-family="Times,serif" font-size="14.00">0.17</text>
</g>
<!-- wood&#45;&#45;tree -->
<g id="edge41" class="edge">
<title>wood&#45;&#45;tree</title>
<path fill="none" stroke="black" stroke-width="4" d="M692,-634.01C669.87,-630.47 641.41,-621.94 626,-601.5 574.12,-532.7 585.99,-489.48 614,-408 646.43,-313.67 677.91,-297.79 752,-231 762.56,-221.48 776.03,-212.97 787.11,-206.73"/>
<text text-anchor="middle" x="626" y="-411.2" font-family="Times,serif" font-size="14.00">0.38</text>
</g>
<!-- campfire -->
<g id="node15" class="node">
<title>campfire</title>
<ellipse fill="none" stroke="black" cx="833" cy="-549" rx="44.19" ry="18"/>
<text text-anchor="middle" x="833" y="-543.95" font-family="Times,serif" font-size="14.00">campfire</text>
</g>
<!-- wood&#45;&#45;campfire -->
<g id="edge42" class="edge">
<title>wood&#45;&#45;campfire</title>
<path fill="none" stroke="black" stroke-width="3" d="M750.53,-628.64C766.59,-623.03 786.47,-614.2 801,-601.5 811.78,-592.08 820.14,-578.13 825.6,-567.13"/>
<text text-anchor="middle" x="828" y="-588.2" font-family="Times,serif" font-size="14.00">0.26</text>
</g>
<!-- fire&#45;&#45;building -->
<g id="edge29" class="edge">
<title>fire&#45;&#45;building</title>
<path fill="none" stroke="black" stroke-width="3" d="M914.98,-362.12C931.62,-355.46 954.52,-345.84 974,-336 986.89,-329.48 988.54,-324.75 1002,-319.5 1042.45,-303.72 1091.46,-294.42 1125.11,-289.42"/>
<text text-anchor="middle" x="1014" y="-322.7" font-family="Times,serif" font-size="14.00">0.29</text>
</g>
<!-- fire&#45;&#45;wood -->
<g id="edge31" class="edge">
<title>fire&#45;&#45;wood</title>
<path fill="none" stroke="black" stroke-width="2" d="M874.52,-386.2C867.06,-392.34 858.58,-400.03 852,-408 793.37,-478.93 746.95,-580.19 729.97,-619.76"/>
<text text-anchor="middle" x="804" y="-499.7" font-family="Times,serif" font-size="14.00">0.17</text>
</g>
<!-- fire&#45;&#45;tree -->
<g id="edge30" class="edge">
<title>fire&#45;&#45;tree</title>
<path fill="none" stroke="black" stroke-width="2" d="M881.38,-355.14C872.38,-341.32 859.47,-320.56 850,-301.5 834.91,-271.14 821.14,-233.95 813.72,-212.81"/>
<text text-anchor="middle" x="862" y="-278.45" font-family="Times,serif" font-size="14.00">0.21</text>
</g>
<!-- fire&#45;&#45;campfire -->
<g id="edge32" class="edge">
<title>fire&#45;&#45;campfire</title>
<path fill="none" stroke="black" stroke-width="4" d="M911.85,-384.27C921.1,-390.32 931.66,-398.5 939,-408 958.54,-433.27 961.3,-447.65 953,-478.5 948.4,-495.62 946.66,-501.7 933,-513 915.85,-527.19 892.57,-535.78 872.79,-540.9"/>
<text text-anchor="middle" x="969" y="-455.45" font-family="Times,serif" font-size="14.00">0.35</text>
</g>
<!-- warm -->
<g id="node16" class="node">
<title>warm</title>
<ellipse fill="none" stroke="black" cx="912" cy="-460.5" rx="32.41" ry="18"/>
<text text-anchor="middle" x="912" y="-455.45" font-family="Times,serif" font-size="14.00">warm</text>
</g>
<!-- fire&#45;&#45;warm -->
<g id="edge33" class="edge">
<title>fire&#45;&#45;warm</title>
<path fill="none" stroke="black" stroke-width="2" d="M885.4,-389.61C882.3,-399.89 880.05,-413.23 884,-424.5 886.58,-431.84 891.41,-438.79 896.35,-444.53"/>
<text text-anchor="middle" x="896" y="-411.2" font-family="Times,serif" font-size="14.00">0.15</text>
</g>
<!-- tree&#45;&#45;building -->
<g id="edge34" class="edge">
<title>tree&#45;&#45;building</title>
<path fill="none" stroke="black" stroke-width="2" d="M832.98,-202.05C895.11,-217.11 1056.82,-256.29 1129.13,-273.81"/>
<text text-anchor="middle" x="1030" y="-234.2" font-family="Times,serif" font-size="14.00">0.18</text>
</g>
<!-- tree&#45;&#45;wood -->
<g id="edge36" class="edge">
<title>tree&#45;&#45;wood</title>
<path fill="none" stroke="black" stroke-width="4" d="M781,-197.76C731.11,-201.45 626.84,-211.33 597,-231 574.3,-245.96 564,-255.32 564,-282.5 564,-550 564,-550 564,-550 564,-575.25 568.59,-585.34 588,-601.5 617.31,-625.9 661.65,-633.52 691.44,-635.78"/>
<text text-anchor="middle" x="576" y="-411.2" font-family="Times,serif" font-size="14.00">0.38</text>
</g>
<!-- tree&#45;&#45;fire -->
<g id="edge35" class="edge">
<title>tree&#45;&#45;fire</title>
<path fill="none" stroke="black" stroke-width="2" d="M825.32,-209.15C840.69,-221.82 862.45,-242.44 874,-265.5 888.31,-294.08 891.52,-331.88 892.08,-353.61"/>
<text text-anchor="middle" x="898" y="-278.45" font-family="Times,serif" font-size="14.00">0.21</text>
</g>
<!-- tree&#45;&#45;campfire -->
<g id="edge37" class="edge">
<title>tree&#45;&#45;campfire</title>
<path fill="none" stroke="black" stroke-width="3" d="M788.92,-207.93C780.76,-213.92 771.8,-221.86 766,-231 727.39,-291.87 721.68,-318.98 734,-390 743.92,-447.2 741.77,-467.63 778,-513 785.13,-521.93 795.2,-529.27 804.77,-534.87"/>
<text text-anchor="middle" x="746" y="-366.95" font-family="Times,serif" font-size="14.00">0.28</text>
</g>
<!-- campfire&#45;&#45;wood -->
<g id="edge46" class="edge">
<title>campfire&#45;&#45;wood</title>
<path fill="none" stroke="black" stroke-width="3" d="M806.01,-563.69C795.31,-569.63 783.16,-577.05 773,-585 759.26,-595.75 745.6,-610.15 736.03,-620.98"/>
<text text-anchor="middle" x="785" y="-588.2" font-family="Times,serif" font-size="14.00">0.26</text>
</g>
<!-- campfire&#45;&#45;fire -->
<g id="edge44" class="edge">
<title>campfire&#45;&#45;fire</title>
<path fill="none" stroke="black" stroke-width="4" d="M832.99,-530.64C833.49,-509.26 836.07,-472.14 847,-442.5 854.51,-422.14 868.82,-401.61 879.29,-388.21"/>
<text text-anchor="middle" x="859" y="-455.45" font-family="Times,serif" font-size="14.00">0.35</text>
</g>
<!-- campfire&#45;&#45;tree -->
<g id="edge45" class="edge">
<title>campfire&#45;&#45;tree</title>
<path fill="none" stroke="black" stroke-width="3" d="M830.57,-530.73C825.62,-494.66 814.45,-408.61 810,-336 807.3,-291.84 807.43,-239.71 807.73,-213.26"/>
<text text-anchor="middle" x="827" y="-366.95" font-family="Times,serif" font-size="14.00">0.28</text>
</g>
<!-- campfire&#45;&#45;warm -->
<g id="edge47" class="edge">
<title>campfire&#45;&#45;warm</title>
<path fill="none" stroke="black" stroke-width="2" d="M864.9,-536.16C876.09,-530.62 887.87,-523 896,-513 903.91,-503.26 907.93,-489.61 909.95,-478.81"/>
<text text-anchor="middle" x="917" y="-499.7" font-family="Times,serif" font-size="14.00">0.22</text>
</g>
<!-- warm&#45;&#45;fire -->
<g id="edge75" class="edge">
<title>warm&#45;&#45;fire</title>
<path fill="none" stroke="black" stroke-width="2" d="M912.16,-442.08C911.87,-431.99 910.87,-419.11 908,-408 906.36,-401.66 903.63,-395.05 900.89,-389.3"/>
<text text-anchor="middle" x="923" y="-411.2" font-family="Times,serif" font-size="14.00">0.15</text>
</g>
<!-- warm&#45;&#45;campfire -->
<g id="edge76" class="edge">
<title>warm&#45;&#45;campfire</title>
<path fill="none" stroke="black" stroke-width="2" d="M892.52,-474.99C884.45,-481.06 875.3,-488.63 868,-496.5 858.15,-507.12 849.02,-520.73 842.56,-531.3"/>
<text text-anchor="middle" x="880" y="-499.7" font-family="Times,serif" font-size="14.00">0.22</text>
</g>
<!-- carrying&#45;&#45;contains -->
<g id="edge74" class="edge">
<title>carrying&#45;&#45;contains</title>
<path fill="none" stroke="black" stroke-width="2" d="M231.7,-744.07C227.78,-754.77 225.27,-768.41 232,-778.5 242.25,-793.88 260.68,-802.51 277.67,-807.35"/>
<text text-anchor="middle" x="244" y="-765.2" font-family="Times,serif" font-size="14.00">0.18</text>
</g>
</g>
</svg>
